<mxfile host="app.diagrams.net" modified="2024-05-17T15:53:22.094Z" agent="Mozilla/5.0 (Macintosh; Intel Mac OS X 10_15_7) AppleWebKit/537.36 (KHTML, like Gecko) Chrome/124.0.0.0 Safari/537.36" etag="L3w3n_94qptdJFH0H9l7" version="24.4.4" type="device">
  <diagram name="Seite-1" id="oPT7TECQ1eT6lASpgrFY">
    <mxGraphModel dx="1306" dy="835" grid="1" gridSize="10" guides="1" tooltips="1" connect="1" arrows="1" fold="1" page="1" pageScale="1" pageWidth="827" pageHeight="1169" math="0" shadow="0">
      <root>
        <mxCell id="0" />
        <mxCell id="1" parent="0" />
        <mxCell id="WZJQJuBsgyFQh6mw2KhG-1" value="Shop" style="rounded=0;whiteSpace=wrap;html=1;" vertex="1" parent="1">
          <mxGeometry x="400" y="160" width="200" height="200" as="geometry" />
        </mxCell>
        <mxCell id="WZJQJuBsgyFQh6mw2KhG-2" value="PIM (Akaneo)" style="rounded=0;whiteSpace=wrap;html=1;" vertex="1" parent="1">
          <mxGeometry x="160" y="230" width="120" height="60" as="geometry" />
        </mxCell>
        <mxCell id="WZJQJuBsgyFQh6mw2KhG-3" value="Product&lt;br&gt;Data" style="endArrow=classic;html=1;rounded=0;entryX=0;entryY=0.5;entryDx=0;entryDy=0;exitX=1;exitY=0.5;exitDx=0;exitDy=0;" edge="1" parent="1" source="WZJQJuBsgyFQh6mw2KhG-2" target="WZJQJuBsgyFQh6mw2KhG-1">
          <mxGeometry width="50" height="50" relative="1" as="geometry">
            <mxPoint x="500" y="430" as="sourcePoint" />
            <mxPoint x="550" y="380" as="targetPoint" />
            <mxPoint as="offset" />
          </mxGeometry>
        </mxCell>
        <mxCell id="WZJQJuBsgyFQh6mw2KhG-4" value="Shop&lt;br&gt;User" style="shape=umlActor;verticalLabelPosition=bottom;verticalAlign=top;html=1;outlineConnect=0;" vertex="1" parent="1">
          <mxGeometry x="400" y="440" width="30" height="60" as="geometry" />
        </mxCell>
        <mxCell id="WZJQJuBsgyFQh6mw2KhG-5" value="Backoffice&lt;br&gt;User" style="shape=umlActor;verticalLabelPosition=bottom;verticalAlign=top;html=1;outlineConnect=0;" vertex="1" parent="1">
          <mxGeometry x="570" y="440" width="30" height="60" as="geometry" />
        </mxCell>
        <mxCell id="WZJQJuBsgyFQh6mw2KhG-6" value="" style="endArrow=classic;html=1;rounded=0;entryX=0.25;entryY=1;entryDx=0;entryDy=0;dashed=1;" edge="1" parent="1" source="WZJQJuBsgyFQh6mw2KhG-4" target="WZJQJuBsgyFQh6mw2KhG-1">
          <mxGeometry width="50" height="50" relative="1" as="geometry">
            <mxPoint x="500" y="430" as="sourcePoint" />
            <mxPoint x="550" y="380" as="targetPoint" />
            <Array as="points" />
          </mxGeometry>
        </mxCell>
        <mxCell id="WZJQJuBsgyFQh6mw2KhG-10" value="" style="endArrow=classic;html=1;rounded=0;entryX=0.75;entryY=1;entryDx=0;entryDy=0;dashed=1;" edge="1" parent="1" source="WZJQJuBsgyFQh6mw2KhG-5" target="WZJQJuBsgyFQh6mw2KhG-1">
          <mxGeometry width="50" height="50" relative="1" as="geometry">
            <mxPoint x="435" y="450" as="sourcePoint" />
            <mxPoint x="460" y="370" as="targetPoint" />
            <Array as="points" />
          </mxGeometry>
        </mxCell>
      </root>
    </mxGraphModel>
  </diagram>
</mxfile>
